<svg width="330" height="88" viewBox="0 0 330 88" fill="none" xmlns="http://www.w3.org/2000/svg">
<path d="M46.0001 0C20.617 0 0 19.7218 0 44.0028C0 68.2839 20.6168 88 46.0001 88C71.383 88.0002 92 68.2837 92 44.0028C92 19.7218 71.3832 0 45.9999 0H46.0001ZM46.0001 3.42333C69.4487 3.42333 88.4211 21.5721 88.4211 44.0028C88.4211 47.2931 88.0126 50.4903 87.242 53.5522L78.6417 51.9609L74.7098 38.8447L74.4463 37.9572L73.5186 37.6824L62.3986 34.3963L49.5849 10.8317L48.6752 9.15428L47.0176 10.1846L29.5716 21.0394L29.0093 21.3887L28.8235 22.0069L19.6429 52.6708L6.19462 58.0636C4.50544 53.6832 3.57926 48.9487 3.57926 44.0028C3.57926 21.5721 22.5515 3.42333 46.0001 3.42333ZM46.1556 14.8048L36.0952 33.9669L39.2012 58.5963L56.4617 47.2491V58.7854L51.949 59.9304L55.9412 83.4599C52.7532 84.1905 49.4238 84.5765 45.9999 84.5765C28.9907 84.5765 14.3364 75.0285 7.57086 61.2236L21.8209 55.5046L22.6111 55.1895L22.8505 54.3995L32.0791 23.5701L46.1556 14.8048Z" fill="#022A3C"/>
<path d="M105.372 35.416C107.846 32.216 111.878 30.616 117.468 30.616C123.057 30.616 127.046 32.1947 129.436 35.352C131.868 38.5093 133.083 43.6507 133.083 50.776C133.083 57.8587 131.846 63.1067 129.372 66.52C126.897 69.9333 122.886 71.64 117.34 71.64C111.793 71.64 107.804 69.9547 105.372 66.584C102.94 63.2133 101.724 57.9867 101.724 50.904C101.724 43.7787 102.94 38.616 105.372 35.416ZM122.076 50.776C122.076 46.8507 121.756 44.2053 121.116 42.84C120.518 41.432 119.26 40.728 117.34 40.728C115.462 40.728 114.246 41.432 113.692 42.84C113.137 44.2053 112.86 46.8293 112.86 50.712V52.248C112.86 56.3867 113.158 59.1173 113.756 60.44C114.396 61.72 115.654 62.36 117.532 62.36C119.452 62.36 120.689 61.7413 121.244 60.504C121.798 59.2667 122.076 56.7067 122.076 52.824V50.776ZM148.641 57.944C148.641 59.2667 148.918 60.248 149.473 60.888C150.028 61.528 150.924 61.848 152.161 61.848C153.441 61.848 154.316 61.5493 154.785 60.952C155.297 60.312 155.553 59.288 155.553 57.88V31.256H166.561V58.52C166.561 63.0853 165.302 66.4133 162.785 68.504C160.31 70.5947 156.641 71.64 151.777 71.64C146.956 71.64 143.35 70.616 140.961 68.568C138.614 66.4773 137.441 63.1707 137.441 58.648V31.256H148.641V57.944ZM195.295 40.92H187.871V71H176.927V40.92H169.055L169.695 31.256H195.935L195.295 40.92ZM228.009 50.264C228.009 64.088 222.548 71 211.625 71H198.441V31.256H211.881C217.726 31.256 221.865 32.8987 224.297 36.184C226.772 39.4267 228.009 44.12 228.009 50.264ZM211.433 61.784C213.694 61.784 215.145 60.9947 215.785 59.416C216.468 57.7947 216.809 55.1067 216.809 51.352C216.809 47.5547 216.446 44.8667 215.721 43.288C215.038 41.7093 213.545 40.92 211.241 40.92H209.321V61.784H211.433ZM234.497 35.416C236.971 32.216 241.003 30.616 246.593 30.616C252.182 30.616 256.171 32.1947 258.561 35.352C260.993 38.5093 262.208 43.6507 262.208 50.776C262.208 57.8587 260.971 63.1067 258.497 66.52C256.022 69.9333 252.011 71.64 246.465 71.64C240.918 71.64 236.929 69.9547 234.497 66.584C232.065 63.2133 230.849 57.9867 230.849 50.904C230.849 43.7787 232.065 38.616 234.497 35.416ZM251.201 50.776C251.201 46.8507 250.881 44.2053 250.241 42.84C249.643 41.432 248.385 40.728 246.465 40.728C244.587 40.728 243.371 41.432 242.817 42.84C242.262 44.2053 241.985 46.8293 241.985 50.712V52.248C241.985 56.3867 242.283 59.1173 242.881 60.44C243.521 61.72 244.779 62.36 246.657 62.36C248.577 62.36 249.814 61.7413 250.369 60.504C250.923 59.2667 251.201 56.7067 251.201 52.824V50.776ZM268.934 35.416C271.409 32.216 275.441 30.616 281.03 30.616C286.619 30.616 290.609 32.1947 292.998 35.352C295.43 38.5093 296.646 43.6507 296.646 50.776C296.646 57.8587 295.409 63.1067 292.934 66.52C290.459 69.9333 286.449 71.64 280.902 71.64C275.355 71.64 271.366 69.9547 268.934 66.584C266.502 63.2133 265.286 57.9867 265.286 50.904C265.286 43.7787 266.502 38.616 268.934 35.416ZM285.638 50.776C285.638 46.8507 285.318 44.2053 284.678 42.84C284.081 41.432 282.822 40.728 280.902 40.728C279.025 40.728 277.809 41.432 277.254 42.84C276.699 44.2053 276.422 46.8293 276.422 50.712V52.248C276.422 56.3867 276.721 59.1173 277.318 60.44C277.958 61.72 279.217 62.36 281.094 62.36C283.014 62.36 284.251 61.7413 284.806 60.504C285.361 59.2667 285.638 56.7067 285.638 52.824V50.776ZM328.204 43.864C328.204 46.2533 327.841 48.2373 327.116 49.816C326.39 51.3947 325.26 52.824 323.724 54.104L329.036 71H317.196L313.228 56.664H311.756V71H301.004V31.256H315.852C320.118 31.256 323.233 32.2587 325.196 34.264C327.201 36.2693 328.204 39.4693 328.204 43.864ZM313.42 49.944C314.529 49.944 315.318 49.624 315.788 48.984C316.257 48.344 316.492 47.192 316.492 45.528C316.492 43.8213 316.257 42.648 315.788 42.008C315.318 41.3253 314.55 40.984 313.484 40.984H311.756V49.944H313.42Z" fill="#043247"/>
</svg>
